<svg xmlns="http://www.w3.org/2000/svg" width="512" height="512" style="shape-rendering:geometricPrecision;text-rendering:geometricPrecision;image-rendering:optimizeQuality;fill-rule:evenodd;clip-rule:evenodd"><path style="opacity:.827" fill="#0073a2" d="M479.5 377.5c-.838-.342-1.172-1.008-1-2 .167-80.667 0-161.334-.5-242-1.121-44.113-21.621-75.28-61.5-93.5a183.78 183.78 0 0 0-41-7c-81-.667-162-.667-243 0-48.49 1.85-80.324 25.682-95.5 71.5a235.906 235.906 0 0 0-4 28c-.667 80.333-.667 160.667 0 241-.547 46.058 19.953 78.558 61.5 97.5a147.559 147.559 0 0 0 39 7c75.999.5 151.999.667 228 .5v1c-81.022.474-162.022-.026-243-1.5-29.195-3.342-52.362-16.842-69.5-40.5-10.527-15.996-16.193-33.996-17-54a16383.43 16383.43 0 0 1 0-256C34.215 85.527 54.382 56.027 92.5 39a135.925 135.925 0 0 1 35-7 16383.43 16383.43 0 0 1 256 0c37.756 1.78 65.923 18.947 84.5 51.5 5.353 11.076 8.686 22.743 10 35a11454.57 11454.57 0 0 1 1.5 259Z"/><path style="opacity:1" fill="#01a8eb" d="M478.5 375.5c-.012 38.863-16.345 68.696-49 89.5-10.718 5.514-22.052 9.181-34 11a324.284 324.284 0 0 1-34 2.5c-76.001.167-152.001 0-228-.5a147.559 147.559 0 0 1-39-7c-41.547-18.942-62.047-51.442-61.5-97.5-.667-80.333-.667-160.667 0-241a235.906 235.906 0 0 1 4-28C52.176 58.682 84.01 34.85 132.5 33c81-.667 162-.667 243 0a183.78 183.78 0 0 1 41 7c39.879 18.22 60.379 49.387 61.5 93.5.5 80.666.667 161.333.5 242Z"/><path style="opacity:1" fill="#e7f7fd" d="M407.5 153.5a11631.533 11631.533 0 0 0-305 0c-.789-.283-1.456-.783-2-1.5 103-.667 206-.667 309 0-.544.717-1.211 1.217-2 1.5Z"/><path style="opacity:1" fill="#fefefe" d="M407.5 153.5a28575.133 28575.133 0 0 1-152.5 123 28575.133 28575.133 0 0 1-152.5-123 11631.533 11631.533 0 0 1 305 0ZM419.5 156.5a9806.215 9806.215 0 0 1-1 198 698806.09 698806.09 0 0 1-122-99 14402.17 14402.17 0 0 1 123-99Z"/><path style="opacity:1" fill="#21b3ee" d="M419.5 156.5a4955.572 4955.572 0 0 1 0 199c-.607-.124-.94-.457-1-1a9806.215 9806.215 0 0 0 1-198Z"/><path style="opacity:1" fill="#e8f6fd" d="M92.5 158.5a4802.62 4802.62 0 0 0 0 196c-.06.543-.393.876-1 1-1.333-66-1.333-132 0-198 .607.124.94.457 1 1Z"/><path style="opacity:1" fill="#fefefe" d="M92.5 158.5a16556.756 16556.756 0 0 1 122 97.5c-40.83 32.667-81.497 65.5-122 98.5a4802.62 4802.62 0 0 1 0-196ZM408.5 358.5c-102 1.333-204 1.333-306 0a16893.394 16893.394 0 0 1 119.5-96 493.375 493.375 0 0 0 33 25 239.964 239.964 0 0 0 30.5-23.5c1.544-1.187 3.211-1.52 5-1a15707.096 15707.096 0 0 0 118 95.5Z"/><path style="opacity:1" fill="#ccedfb" d="M102.5 358.5c102 1.333 204 1.333 306 0 .789.283 1.456.783 2 1.5-103.002.833-206.002.667-309-.5.124-.607.457-.94 1-1Z"/><path style="opacity:.444" fill="#0078a9" d="M478.5 375.5c-.172.992.162 1.658 1 2-.768 47.431-23.101 79.598-67 96.5a178.737 178.737 0 0 1-51 5.5v-1a324.284 324.284 0 0 0 34-2.5c11.948-1.819 23.282-5.486 34-11 32.655-20.804 48.988-50.637 49-89.5Z"/></svg>