<?xml version="1.0" encoding="UTF-8"?>
<!DOCTYPE svg PUBLIC "-//W3C//DTD SVG 1.1//EN" "http://www.w3.org/Graphics/SVG/1.1/DTD/svg11.dtd">
<svg xmlns="http://www.w3.org/2000/svg" version="1.1" width="225px" height="225px" style="shape-rendering:geometricPrecision; text-rendering:geometricPrecision; image-rendering:optimizeQuality; fill-rule:evenodd; clip-rule:evenodd" xmlns:xlink="http://www.w3.org/1999/xlink">
<g><path style="opacity:1" fill="#2aa9ec" d="M 96.5,4.5 C 152.541,0.784266 191.708,24.4509 214,75.5C 228.532,127.235 214.699,169.401 172.5,202C 140.14,221.541 106.14,224.875 70.5,212C 34.0971,195.249 12.2638,167.082 5,127.5C 0.798812,71.4333 24.2988,32.2666 75.5,10C 82.586,7.97999 89.586,6.14665 96.5,4.5 Z"/></g>
<g><path style="opacity:1" fill="#f7fbfd" d="M 164.5,133.5 C 161.833,134.167 160.167,135.833 159.5,138.5C 149.154,142.779 140.321,140.779 133,132.5C 132.617,133.056 132.117,133.389 131.5,133.5C 129.5,133.5 128.5,134.5 128.5,136.5C 118.293,141.567 107.959,141.734 97.5,137C 84.9634,127.721 81.13,115.555 86,100.5C 86.7918,97.8936 88.2918,95.8936 90.5,94.5C 92.5,93.1667 94.1667,91.5 95.5,89.5C 100.083,85.2476 105.583,83.2476 112,83.5C 118.223,83.2571 123.723,84.9238 128.5,88.5C 128.973,89.9063 129.973,90.573 131.5,90.5C 136.153,94.453 139.32,99.453 141,105.5C 141.074,112.606 141.74,119.606 143,126.5C 148.79,131.146 153.457,130.146 157,123.5C 162.326,98.9883 153.826,81.155 131.5,70C 101.307,60.292 80.1401,69.792 68,98.5C 63.0146,127.373 74.1813,146.873 101.5,157C 113.979,159.572 125.813,157.739 137,151.5C 140.049,153.41 142.549,155.91 144.5,159C 123.42,172.649 102.087,172.982 80.5,160C 58.4517,142.856 50.9517,120.69 58,93.5C 68.7993,66.6848 88.6326,53.8514 117.5,55C 144.653,58.8171 161.819,73.9838 169,100.5C 170.768,112.042 169.268,123.042 164.5,133.5 Z"/></g>
<g><path style="opacity:1" fill="#a3cae8" d="M 128.5,88.5 C 130.027,88.427 131.027,89.0937 131.5,90.5C 129.973,90.573 128.973,89.9063 128.5,88.5 Z"/></g>
<g><path style="opacity:1" fill="#b1d8f2" d="M 95.5,89.5 C 94.1667,91.5 92.5,93.1667 90.5,94.5C 91.1667,91.8333 92.8333,90.1667 95.5,89.5 Z"/></g>
<g><path style="opacity:1" fill="#2fa9eb" d="M 108.5,94.5 C 126.347,94.8315 132.847,103.498 128,120.5C 120.295,130.623 111.128,132.123 100.5,125C 93.6303,115.759 93.9636,106.759 101.5,98C 103.925,96.7874 106.259,95.6207 108.5,94.5 Z"/></g>
<g><path style="opacity:1" fill="#a1cae7" d="M 131.5,133.5 C 130.833,134.833 129.833,135.833 128.5,136.5C 128.5,134.5 129.5,133.5 131.5,133.5 Z"/></g>
<g><path style="opacity:1" fill="#a1c9e8" d="M 164.5,133.5 C 163.167,135.5 161.5,137.167 159.5,138.5C 160.167,135.833 161.833,134.167 164.5,133.5 Z"/></g>
</svg>
