<?xml version="1.0" encoding="UTF-8"?>
<!DOCTYPE svg PUBLIC "-//W3C//DTD SVG 1.1//EN" "http://www.w3.org/Graphics/SVG/1.1/DTD/svg11.dtd">
<svg xmlns="http://www.w3.org/2000/svg" version="1.1" width="225px" height="225px" style="shape-rendering:geometricPrecision; text-rendering:geometricPrecision; image-rendering:optimizeQuality; fill-rule:evenodd; clip-rule:evenodd" xmlns:xlink="http://www.w3.org/1999/xlink">
<g><path style="opacity:1" fill="#29aaed" d="M 96.5,4.5 C 152.541,0.784266 191.708,24.4509 214,75.5C 228.532,127.235 214.699,169.401 172.5,202C 140.14,221.541 106.14,224.875 70.5,212C 34.0648,195.223 12.2315,167.056 5,127.5C 0.798812,71.4333 24.2988,32.2666 75.5,10C 82.586,7.97999 89.586,6.14665 96.5,4.5 Z"/></g>
<g><path style="opacity:1" fill="#fcfdfe" d="M 105.5,58.5 C 118.881,57.7616 131.214,60.9283 142.5,68C 149.037,72.5681 151.537,78.7348 150,86.5C 146.257,90.2594 141.757,91.4261 136.5,90C 132.534,87.036 128.867,83.7026 125.5,80C 116.32,74.5707 106.987,74.2374 97.5,79C 90.6558,88.0461 92.6558,94.3794 103.5,98C 114.542,100.51 125.542,103.177 136.5,106C 152.336,112.84 158.17,124.673 154,141.5C 149.999,152.833 142.166,160 130.5,163C 116.64,165.531 102.973,164.865 89.5,161C 80.0559,158.043 73.8892,151.876 71,142.5C 70.3238,131.908 75.1571,128.074 85.5,131C 89.601,135.857 93.9343,140.524 98.5,145C 107.833,149.667 117.167,149.667 126.5,145C 133.917,138.893 134.251,132.56 127.5,126C 113.879,121.845 100.212,117.845 86.5,114C 73.7579,107.34 68.9245,96.8396 72,82.5C 74.2346,73.2633 79.7346,66.7633 88.5,63C 94.175,60.9998 99.8417,59.4998 105.5,58.5 Z"/></g>
</svg>
