<svg viewBox="0 0 64 64" xmlns="http://www.w3.org/2000/svg"><g fill-rule="evenodd"><path d="M48 64H16A16 16 0 0 1 0 48V16A16 16 0 0 1 16 0h32a16 16 0 0 1 16 16v32a16 16 0 0 1-16 16" fill="#0094e6"/><path d="M30 18h18A9 9 0 0 0 48.92.046C48.614.029 48.311 0 48 0H16A16 16 0 0 0 0 16v32a30 30 0 0 1 30-30" fill="#00b1f6"/><path d="M48 32a16 16 0 1 0 16 16V16a16 16 0 0 1-16 16" fill="#0078d7"/><path d="M32.077 44.006c6.304-.001 9.501-3.192 9.501-7.323 0-2.686-1.274-5.491-6.056-6.568l-4.361-.985c-1.655-.362-3.54-.9-3.54-2.49s1.274-2.725 3.698-2.725c4.873 0 4.466 3.402 6.89 3.402A2.11 2.11 0 0 0 40.58 25.3c0-3.047-4.848-5.3-8.926-5.3-4.427 0-9.077 1.839-9.077 6.923 0 2.45.827 5.09 5.576 6.299l5.911 1.491c1.787.42 2.312 1.471 2.312 2.39 0 1.531-1.589 3.16-4.295 3.16-5.294 0-4.552-4.257-7.389-4.257a2.148 2.148 0 0 0-2.266 2.148c0 2.476 3.026 5.851 9.651 5.852zM14.166 29.552a10.998 10.998 0 0 1 15.386-15.386 18.009 18.009 0 0 1 20.282 20.282 10.998 10.998 0 0 1-15.386 15.386 18.009 18.009 0 0 1-20.282-20.282z" fill="#fff"/></g></svg>