<svg xmlns="http://www.w3.org/2000/svg" width="225" height="225" viewBox="0 0 225 225" version="1.1"><path d="M 144.500 72.447 C 118.686 82.036, 48.143 112.864, 46.961 115.073 C 46.436 116.053, 46.272 117.546, 46.596 118.390 C 47.834 121.615, 71.824 128.481, 77.905 127.352 C 79.896 126.982, 90.075 120.819, 102.405 112.517 C 127.887 95.362, 132.603 92.548, 133.485 93.976 C 134.413 95.477, 131.626 98.510, 113.760 115.442 C 105.103 123.647, 97.750 131.211, 97.420 132.252 C 95.996 136.739, 97.842 138.544, 117.303 151.689 C 127.952 158.882, 138.064 165.075, 139.774 165.450 C 143.640 166.299, 146.517 164.834, 148.495 161.011 C 150.318 157.484, 155.893 126.760, 160.224 96.363 C 163.236 75.224, 163.301 74.109, 161.666 71.613 C 159.354 68.084, 155.780 68.258, 144.500 72.447" stroke="none" fill="#fafbfc" fill-rule="evenodd"/><path d="M 91.156 6.482 C 79.541 9.102, 74.248 10.967, 64.322 15.935 C 42.155 27.033, 26.302 43.127, 15.502 65.500 C 6.906 83.306, 5.498 89.931, 5.512 112.500 C 5.527 135.218, 6.988 142.127, 15.452 159.500 C 29.195 187.706, 52.569 207.353, 83.500 216.698 C 92 219.266, 93.611 219.417, 112.500 219.417 C 131.389 219.417, 133 219.266, 141.500 216.698 C 178.605 205.488, 205.526 178.565, 216.690 141.500 C 219.226 133.078, 219.404 131.247, 219.450 113 C 219.509 89.873, 218.163 83.449, 209.498 65.500 C 198.701 43.132, 182.620 26.848, 160.500 15.879 C 144.107 7.751, 135.680 5.810, 115 5.399 C 102.338 5.147, 95.746 5.446, 91.156 6.482 M 144.500 72.447 C 118.686 82.036, 48.143 112.864, 46.961 115.073 C 46.436 116.053, 46.272 117.546, 46.596 118.390 C 47.834 121.615, 71.824 128.481, 77.905 127.352 C 79.896 126.982, 90.075 120.819, 102.405 112.517 C 127.887 95.362, 132.603 92.548, 133.485 93.976 C 134.413 95.477, 131.626 98.510, 113.760 115.442 C 105.103 123.647, 97.750 131.211, 97.420 132.252 C 95.996 136.739, 97.842 138.544, 117.303 151.689 C 127.952 158.882, 138.064 165.075, 139.774 165.450 C 143.640 166.299, 146.517 164.834, 148.495 161.011 C 150.318 157.484, 155.893 126.760, 160.224 96.363 C 163.236 75.224, 163.301 74.109, 161.666 71.613 C 159.354 68.084, 155.780 68.258, 144.500 72.447" stroke="none" fill="#25a6e2" fill-rule="evenodd"/></svg>